<?xml version="1.0" encoding="UTF-8" standalone="no"?>
<!DOCTYPE svg PUBLIC "-//W3C//DTD SVG 1.1//EN" "http://www.w3.org/Graphics/SVG/1.1/DTD/svg11.dtd">
<svg width="100%" height="100%" viewBox="0 0 250 68" version="1.1" xmlns="http://www.w3.org/2000/svg" xmlns:xlink="http://www.w3.org/1999/xlink" xml:space="preserve" xmlns:serif="http://www.serif.com/" style="fill-rule:evenodd;clip-rule:evenodd;stroke-linejoin:round;stroke-miterlimit:2;">
    <g transform="matrix(1,0,0,1,-415.268,-606)">
        <g transform="matrix(1,0,0,1,0,-17)">
            <g transform="matrix(1.2839,0,0,1.2839,-136.808,-106.254)">
                <path d="M459.5,568C475.781,568 489,581.219 489,597.5C489,613.781 475.781,620.769 459.5,620.769C443.219,620.769 430,613.781 430,597.5C430,581.219 443.219,568 459.5,568Z"/>
            </g>
            <g transform="matrix(1.2839,0,0,1.2839,36.9057,-106.254)">
                <path d="M459.5,568C475.781,568 489,581.219 489,597.5C489,613.781 475.781,620.769 459.5,620.769C443.219,620.769 430,613.781 430,597.5C430,581.219 443.219,568 459.5,568Z"/>
            </g>
        </g>
    </g>
</svg>
