<?xml version="1.0" encoding="UTF-8" standalone="no"?>
<!DOCTYPE svg PUBLIC "-//W3C//DTD SVG 1.1//EN" "http://www.w3.org/Graphics/SVG/1.1/DTD/svg11.dtd">
<svg width="100%" height="100%" viewBox="0 0 562 191" version="1.1" xmlns="http://www.w3.org/2000/svg" xmlns:xlink="http://www.w3.org/1999/xlink" xml:space="preserve" xmlns:serif="http://www.serif.com/" style="fill-rule:evenodd;clip-rule:evenodd;stroke-linecap:round;stroke-linejoin:round;stroke-miterlimit:1.5;">
    <g transform="matrix(1,0,0,1,-261.559,-529.5)">
        <g transform="matrix(1,0,0,1,0,7)">
            <g transform="matrix(0.792222,0,0,0.792222,55.9374,76.9333)">
                <circle cx="473.5" cy="682.5" r="112.5" style="fill:none;stroke:black;stroke-width:15.15px;"/>
            </g>
        </g>
        <g transform="matrix(1,0,0,1,0,7)">
            <g transform="matrix(2.47999,0,0,1,-796.118,-7)">
                <path d="M530.768,617.625L548.816,617.625" style="fill:none;stroke:black;stroke-width:6.35px;stroke-linecap:butt;"/>
            </g>
        </g>
        <g transform="matrix(1,0,0,1,0,7)">
            <g transform="matrix(0.688878,0,0,1,83.2435,0)">
                <path d="M375.518,617.625L267.559,617.625" style="fill:none;stroke:black;stroke-width:13.98px;stroke-linecap:butt;"/>
            </g>
        </g>
        <g transform="matrix(1,0,0,1,0,7)">
            <g transform="matrix(0.792222,0,0,0.792222,278.946,76.9333)">
                <circle cx="473.5" cy="682.5" r="112.5" style="fill:none;stroke:black;stroke-width:15.15px;"/>
            </g>
        </g>
        <g transform="matrix(1,0,0,1,0,7)">
            <g transform="matrix(0.655288,0,0,1,281.822,0)">
                <path d="M704.066,617.625L817.559,617.625" style="fill:none;stroke:black;stroke-width:14.19px;stroke-linecap:butt;"/>
            </g>
        </g>
    </g>
</svg>
