<?xml version="1.0" encoding="UTF-8" standalone="no"?>
<!DOCTYPE svg PUBLIC "-//W3C//DTD SVG 1.1//EN" "http://www.w3.org/Graphics/SVG/1.1/DTD/svg11.dtd">
<svg width="100%" height="100%" viewBox="0 0 763 396" version="1.1" xmlns="http://www.w3.org/2000/svg" xmlns:xlink="http://www.w3.org/1999/xlink" xml:space="preserve" xmlns:serif="http://www.serif.com/" style="fill-rule:evenodd;clip-rule:evenodd;stroke-linejoin:round;stroke-miterlimit:2;">
    <g transform="matrix(1,0,0,1,-161.382,-129)">
        <g transform="matrix(1,0,0,1,1.13687e-13,55.7359)">
            <g transform="matrix(0.347454,0,0,0.347454,296.834,5.85801)">
                <circle cx="597" cy="553" r="359" style="fill:rgb(100,64,35);"/>
            </g>
            <g transform="matrix(0.365888,0,0,0.365888,292.447,120.4)">
                <circle cx="597" cy="553" r="359" style="fill:rgb(100,64,35);"/>
            </g>
            <g transform="matrix(0.232919,0,0,0.232919,105.947,256.55)">
                <circle cx="597" cy="553" r="359" style="fill:rgb(100,64,35);"/>
            </g>
            <g transform="matrix(0.440769,0,0,0.440769,85.7432,43.4909)">
                <circle cx="597" cy="553" r="359" style="fill:rgb(100,64,35);"/>
            </g>
            <g transform="matrix(0.375309,0,0,0.375309,450.676,26.4541)">
                <circle cx="597" cy="553" r="359" style="fill:rgb(100,64,35);"/>
            </g>
            <g transform="matrix(0.302886,0,0,0.302886,634.177,155.24)">
                <circle cx="597" cy="553" r="359" style="fill:rgb(100,64,35);"/>
            </g>
        </g>
    </g>
</svg>
