<?xml version="1.0" encoding="UTF-8" standalone="no"?>
<!DOCTYPE svg PUBLIC "-//W3C//DTD SVG 1.1//EN" "http://www.w3.org/Graphics/SVG/1.1/DTD/svg11.dtd">
<svg width="100%" height="100%" viewBox="0 0 33 52" version="1.1" xmlns="http://www.w3.org/2000/svg" xmlns:xlink="http://www.w3.org/1999/xlink" xml:space="preserve" xmlns:serif="http://www.serif.com/" style="fill-rule:evenodd;clip-rule:evenodd;stroke-linejoin:round;stroke-miterlimit:2;">
    <g transform="matrix(1,0,0,1,-523.622,-703.164)">
        <g transform="matrix(1,0,0,1,-21.4791,1)">
            <path d="M566.457,716.498C566.456,716.498 566.456,716.498 566.455,716.497C563.427,714.345 560.451,712.13 557.467,709.919C555.56,708.507 555.159,705.811 556.571,703.905C557.984,701.998 560.679,701.596 562.586,703.009C565.525,705.186 568.455,707.368 571.437,709.487C572.198,710.028 573.693,710.835 574.736,711.682C575.701,712.465 576.405,713.338 576.801,714.133C577.256,715.048 577.606,716.561 576.741,718.314C576.275,719.26 574.763,720.935 574.432,721.282C573.261,722.512 571.902,723.377 570.467,724.072C572.054,725.708 573.614,727.357 574.867,729.286C578.657,735.123 578.519,740.303 576.421,744.411C573.558,750.018 566.257,753.858 558.342,754.142C554.806,754.269 551.274,753.694 547.951,752.504C545.717,751.704 544.552,749.24 545.353,747.006C546.153,744.772 548.616,743.607 550.851,744.407C553.148,745.23 555.589,745.636 558.033,745.548C560.905,745.444 563.698,744.7 565.872,743.375C567.528,742.366 568.845,741.039 569.178,739.3C569.479,737.729 568.947,735.96 567.654,733.969C566.328,731.927 564.523,730.318 562.852,728.57C562.679,728.389 560.425,725.959 560.039,725.421C557.881,722.416 560.22,719.962 560.68,719.566C561.9,718.516 563.345,717.784 564.871,717.135C565.388,716.915 565.931,716.728 566.457,716.498Z"/>
        </g>
    </g>
</svg>
