<svg width="507" height="774" viewBox="0 0 507 774" fill="none" xmlns="http://www.w3.org/2000/svg">
<path d="M282.933 0.675484C311.203 2.05548 339.403 6.86547 366.443 15.2755C386.953 21.9055 407.653 30.8155 425.343 43.2555C440.083 53.9055 454.993 66.0555 466.253 80.4255C485.663 105.215 498.183 135.435 502.373 166.625C505.203 186.555 506.783 206.475 506.273 226.625C505.953 240.465 505.443 254.335 504.133 268.115C503.003 279.475 500.753 290.385 499.133 301.665C498.113 308.345 497.273 315.385 495.083 321.795C494.383 323.515 493.813 323.535 492.053 323.615C490.213 319.825 489.693 315.795 489.533 311.635C489.073 296.675 491.123 282.745 492.063 267.635C493.143 243.415 494.523 219.915 493.063 195.615C491.863 180.585 490.293 165.305 486.873 150.595C480.323 122.615 466.793 96.5155 446.683 75.8855C428.633 57.7555 407.323 42.9255 383.803 32.7855C362.353 23.2755 340.033 17.8655 316.963 13.9755C299.083 10.9755 281.043 9.80548 262.943 9.34548C231.653 9.05548 199.583 13.2855 169.963 23.5955C158.063 27.6855 146.213 32.5255 135.353 38.9055C121.933 47.1355 110.133 58.6455 100.183 70.7755C87.9629 85.9055 77.7529 102.695 69.7129 120.395C56.9929 148.475 48.363 178.875 45.673 209.615C44.293 233.475 44.4929 256.785 53.1229 279.415C54.8829 284.665 58.0829 289.165 59.5529 294.495C63.4629 294.395 67.9829 294.145 71.5629 295.995C72.9029 296.695 73.1029 297.745 72.4629 299.045C69.6129 300.805 65.6829 301.035 62.4329 301.785C51.9729 303.745 41.9029 307.895 32.9229 313.595C25.6529 318.205 18.6629 324.675 14.8129 332.475C10.0829 342.365 11.5529 354.715 13.6229 365.125C18.5729 384.715 30.6529 402.585 46.5029 415.035C57.8129 423.995 71.8329 428.505 85.9629 430.535C95.9229 432.125 105.793 430.295 116.053 430.045C121.143 433.805 123.693 441.335 126.903 446.665C132.793 455.745 138.733 464.785 145.293 473.415C153.203 484.155 161.723 494.085 172.423 502.175C184.233 510.865 197.603 517.596 210.953 523.586C232.903 532.846 255.563 537.215 278.503 542.745C292.203 546.115 306.093 548.395 319.963 550.925C325.603 552.145 331.573 553.345 336.783 555.845C338.433 556.475 338.083 558.725 336.483 559.125C332.913 560.385 328.683 560.215 324.943 560.105C313.933 559.585 302.893 559.036 291.933 557.836C280.453 556.456 269.023 553.935 257.753 551.355C238.313 546.955 218.403 541.816 200.473 532.906C191.543 528.496 182.763 523.705 174.313 518.415C162.983 511.315 152.963 502.326 144.463 492.016C148.823 515.896 148.573 540.875 144.603 564.795C141.883 581.785 137.693 599.925 129.293 615.065C114.233 641.705 88.753 663.036 59.263 671.716C55.943 672.756 52.2429 673.946 48.7929 672.776C47.2729 672.156 46.7529 671.426 47.1629 669.776C47.9829 667.036 50.5829 665.015 52.8829 663.535C65.3129 655.845 79.1029 649.126 90.4929 640.206C103.523 629.846 114.743 617.635 121.643 602.315C128.323 587.375 131.463 570.195 134.023 554.105C136.183 540.705 136.693 527.165 135.813 513.625C135.293 500.945 133.113 488.495 132.423 475.815C126.103 463.945 119.223 452.056 114.073 439.656C107.933 442.116 101.513 443.055 94.9429 443.355C81.4229 444.075 67.553 440.776 55.233 435.336C40.903 429.066 29.0829 418.215 19.6829 405.875C7.17295 389.305 -0.727056 368.565 0.0529442 347.625C0.262944 338.675 2.62294 329.906 7.80294 322.526C12.6929 315.626 19.6429 309.925 26.7429 305.415C32.1029 301.905 38.7729 300.025 44.8129 297.675C41.1129 289.975 38.2029 281.925 36.2929 273.595C31.2329 251.795 30.633 228.775 33.513 206.625C36.583 180.345 43.4029 154.565 53.4129 130.085C64.1929 104.225 78.493 78.8055 97.043 57.6955C105.613 48.0955 115.353 38.8355 126.293 31.9755C132.653 27.9555 139.713 26.3755 146.383 23.0755C189.313 3.91549 236.243 -2.20452 282.933 0.675484Z" fill="black"/>
<path d="M262.943 9.34545C281.043 9.80545 299.083 10.9755 316.963 13.9755C340.033 17.8655 362.353 23.2754 383.803 32.7854C407.323 42.9254 428.633 57.7555 446.683 75.8855C466.793 96.5155 480.323 122.615 486.873 150.595C490.293 165.305 491.863 180.585 493.063 195.615C494.523 219.915 493.143 243.415 492.063 267.635C491.123 282.745 489.073 296.675 489.533 311.635C489.693 315.795 490.213 319.825 492.053 323.615C491.273 330.395 491.293 337.115 491.073 343.915C489.323 348.925 489.303 353.915 488.753 359.135C486.873 384.025 486.483 408.815 483.243 433.645C481.653 445.795 479.693 458.545 475.413 470.085C472.103 479.055 466.623 486.835 460.003 493.665C447.463 506.705 432.483 517.495 416.823 526.465C397.993 537.155 378.373 542.425 358.463 550.315C354.113 552.435 348.723 554.555 345.643 558.425C353.553 560.095 361.213 558.275 368.923 556.615C364.343 568.345 363.323 580.185 362.613 592.625C362.563 598.055 361.883 603.415 364.273 608.435C366.633 613.735 372.363 617.545 377.273 620.295C387.933 626.045 400.283 629.855 411.703 633.925C433.903 641.695 455.053 651.615 476.863 660.515C478.673 664.625 481.583 668.055 483.383 672.175C488.713 683.135 489.923 695.875 485.833 707.445C481.283 720.675 470.783 731.365 459.393 739.065C443.073 750.115 423.393 757.225 404.423 762.165C367.703 771.565 328.613 774.165 290.823 773.175C249.733 771.895 208.443 766.115 168.923 754.665C149.033 748.835 129.283 741.405 111.053 731.485C96.5031 723.515 81.7731 713.245 71.3631 700.175C65.1931 692.185 59.7531 681.945 59.2631 671.715C88.7531 663.035 114.233 641.705 129.293 615.065C137.693 599.925 141.883 581.785 144.603 564.795C148.573 540.875 148.823 515.895 144.463 492.015C152.963 502.325 162.983 511.315 174.313 518.415C182.763 523.705 191.543 528.495 200.473 532.905C218.403 541.815 238.313 546.955 257.753 551.355C269.023 553.935 280.453 556.455 291.933 557.835C302.893 559.035 313.933 559.585 324.943 560.105C328.683 560.215 332.913 560.385 336.483 559.125C338.083 558.725 338.433 556.475 336.783 555.845C331.573 553.345 325.603 552.145 319.963 550.925C306.093 548.395 292.203 546.115 278.503 542.745C255.563 537.215 232.903 532.845 210.953 523.585C197.603 517.595 184.233 510.865 172.423 502.175C161.723 494.085 153.203 484.155 145.293 473.415C138.733 464.785 132.793 455.745 126.903 446.665C123.693 441.335 121.143 433.805 116.053 430.045C105.793 430.295 95.9231 432.125 85.9631 430.535C71.8331 428.505 57.8131 423.995 46.5031 415.035C30.6531 402.585 18.5731 384.715 13.6231 365.125C11.5531 354.715 10.0831 342.365 14.8131 332.475C18.6631 324.675 25.6531 318.205 32.9231 313.595C41.9031 307.895 51.9731 303.745 62.4331 301.785C65.6831 301.035 69.6131 300.805 72.4631 299.045C73.1031 297.745 72.9031 296.695 71.5631 295.995C67.9831 294.145 63.4631 294.395 59.5531 294.495C58.0831 289.165 54.8831 284.665 53.1231 279.415C44.4931 256.785 44.2931 233.475 45.6731 209.615C48.3631 178.875 56.9931 148.475 69.7131 120.395C77.7531 102.695 87.9631 85.9054 100.183 70.7754C110.133 58.6454 121.933 47.1354 135.353 38.9054C146.213 32.5254 158.063 27.6854 169.963 23.5954C199.583 13.2854 231.653 9.05545 262.943 9.34545Z" fill="white"/>
<path d="M47.4932 337.506C51.6432 337.186 55.2732 337.806 59.1432 339.256C64.0032 341.026 69.7932 343.346 73.0232 347.586C75.2932 350.616 74.7532 354.336 72.5932 357.246C68.0532 363.396 61.4232 367.326 57.0032 373.726C63.1532 377.896 71.1432 379.996 78.1032 382.506C81.8832 383.876 86.2532 385.516 88.9732 388.606C89.7432 389.296 89.9732 390.206 89.6532 391.336C87.2932 392.016 84.7032 390.766 82.4332 390.086C74.3232 387.276 65.8632 385.656 57.7432 382.936C54.1532 381.706 50.1632 379.626 49.1432 375.646C48.0632 372.236 50.2332 368.576 52.3932 366.066C56.7932 361.036 62.1632 356.776 66.9832 352.136C62.4832 345.976 51.4732 344.576 47.4932 337.506Z" fill="black"/>
<path d="M491.073 343.916C492.333 344.736 493.233 345.156 493.393 346.776C494.313 351.996 494.503 357.356 494.983 362.626C496.043 378.966 497.013 395.246 496.413 411.626C495.893 425.126 494.853 438.466 492.673 451.806C490.743 463.046 488.013 474.126 482.513 484.196C476.933 494.476 468.923 503.166 460.333 510.996C447.813 522.206 433.833 531.886 418.883 539.566C405.393 546.476 391.043 551.196 376.333 554.696C376.263 570.006 373.463 586.626 375.293 602.496C375.473 604.926 377.913 606.556 379.713 607.876C387.733 613.276 397.953 616.326 407.123 619.216C423.313 624.166 439.183 630.136 454.713 636.876C461.773 639.866 468.423 643.616 474.993 647.546C481.793 651.496 487.993 656.806 493.053 662.806C487.453 663.576 482.613 661.456 476.863 660.516C455.053 651.616 433.903 641.696 411.703 633.926C400.283 629.856 387.933 626.046 377.273 620.296C372.363 617.546 366.633 613.736 364.273 608.436C361.883 603.416 362.563 598.056 362.613 592.626C363.323 580.186 364.343 568.346 368.923 556.616C361.213 558.276 353.553 560.096 345.643 558.426C348.723 554.556 354.113 552.436 358.463 550.316C378.373 542.426 397.993 537.156 416.823 526.466C432.483 517.496 447.463 506.706 460.003 493.666C466.623 486.836 472.103 479.056 475.413 470.086C479.693 458.546 481.653 445.796 483.243 433.646C486.483 408.816 486.873 384.026 488.753 359.136C489.303 353.916 489.323 348.926 491.073 343.916Z" fill="black"/>
</svg>
