<svg width="521" height="748" viewBox="0 0 521 748" fill="none" xmlns="http://www.w3.org/2000/svg">
<path d="M281.858 0.0682095C339.248 -1.33179 397.318 18.8682 441.038 56.1682C466.618 77.9882 487.118 105.378 499.638 136.678C513.698 170.758 519.688 209.378 514.128 245.968C513.318 250.378 512.938 254.618 509.838 258.108C509.318 257.218 508.848 256.308 508.428 255.378C508.028 244.408 509.558 233.458 508.868 222.458C508.258 195.778 502.998 169.298 492.698 144.648C477.258 108.848 452.748 77.1582 421.278 54.0482C396.258 35.6182 367.318 22.8682 336.858 16.7182C301.568 9.3982 264.708 10.5682 229.868 19.7282C195.488 28.6682 163.178 45.6882 136.218 68.8182C104.758 95.5682 80.478 130.438 67.288 169.638C54.748 206.548 52.608 247.018 61.348 285.008C66.738 283.858 72.378 283.348 77.878 283.838C80.158 284.078 82.598 284.658 84.218 286.418C85.218 288.518 84.228 289.918 82.408 290.938C78.898 292.678 74.658 293.168 70.878 294.148C57.188 297.338 44.228 302.818 33.648 312.258C20.708 323.648 12.578 340.178 12.088 357.468C11.618 369.548 14.448 381.628 20.198 392.258C27.468 405.778 38.898 416.618 52.418 423.788C71.188 433.818 94.308 436.458 114.668 430.058C116.548 429.548 118.908 428.668 120.778 429.578C123.178 430.518 124.148 433.118 125.248 435.238C129.998 445.388 134.308 455.488 140.248 465.058C146.238 474.778 153.578 483.718 161.548 491.878C176.248 506.528 194.018 518.438 212.288 528.168C240.278 543.098 270.858 549.368 301.848 554.618C305.028 555.358 309.928 555.748 312.048 558.468C312.708 560.508 311.388 561.528 309.748 562.298C306.468 563.608 302.338 563.258 298.858 563.248C279.898 562.608 260.868 558.988 242.668 553.708C217.028 546.258 193.008 533.538 171.408 517.938C164.628 512.968 157.878 507.728 151.978 501.728C157.268 519.248 159.818 537.178 159.998 555.468C159.668 566.998 157.928 578.308 153.358 588.968C149.138 599.128 142.758 607.888 135.198 615.818C120.788 630.288 105.618 643.518 87.388 653.008C83.158 655.188 78.898 657.158 74.398 658.718C74.318 657.048 75.778 656.458 76.858 655.478C82.738 651.068 88.4681 646.448 93.8381 641.428C106.488 629.498 119.068 617.998 128.718 603.358C135.618 593.298 141.028 582.468 143.628 570.488C146.038 559.768 145.828 549.348 145.478 538.458C145.208 525.378 143.808 512.388 141.758 499.468C141.108 496.208 141.218 492.388 140.058 489.298C135.778 483.818 131.548 478.348 128.018 472.328C122.378 462.848 117.058 452.508 114.548 441.718C107.118 443.618 99.538 444.788 91.858 444.898C63.628 445.368 35.648 432.418 18.088 410.238C6.78803 395.998 -0.271967 377.748 0.00803254 359.468C0.0380325 347.818 2.92804 336.178 8.19804 325.798C16.438 309.578 30.698 296.478 47.458 289.428C40.238 258.948 39.408 227.258 45.268 196.468C52.608 156.938 70.448 119.668 96.178 88.8082C141.278 34.2282 211.198 1.31821 281.858 0.0682095Z" fill="black"/>
<path d="M336.858 16.7181C367.318 22.8681 396.258 35.6181 421.278 54.0481C452.748 77.1581 477.258 108.848 492.698 144.648C502.998 169.298 508.258 195.778 508.868 222.458C509.558 233.458 508.028 244.408 508.428 255.378C507.678 260.568 507.348 265.578 507.738 270.828C505.678 272.158 505.058 273.278 504.598 275.638C501.568 293.368 504.028 312.498 506.008 330.308C509.818 359.118 512.048 389.598 508.258 418.488C505.078 446.698 494.648 474.498 477.738 497.368C462.098 518.388 439.428 531.538 415.358 540.818C400.968 546.208 385.898 549.918 370.858 553.008C360.098 554.978 348.678 557.358 338.538 561.608C339.448 563.738 342.948 562.938 344.858 563.318C357.168 564.538 369.148 562.948 381.338 561.488C375.968 569.148 372.708 578.208 371.488 587.458C370.328 597.038 374.188 606.748 380.688 613.708C387.188 620.848 395.648 624.868 404.668 627.888C410.208 629.728 415.998 630.448 421.818 630.358C428.918 639.238 434.418 648.858 436.078 660.278C437.878 672.318 434.768 684.578 428.068 694.668C419.318 708.018 405.418 717.878 391.298 724.908C373.288 733.898 353.148 739.418 333.388 742.868C292.288 749.768 249.738 748.648 208.868 740.758C186.088 736.208 163.168 729.368 142.338 718.968C123.628 709.578 104.238 696.188 93.678 677.628C89.798 670.488 85.9779 661.258 87.3879 653.008C105.618 643.518 120.788 630.288 135.198 615.818C142.758 607.888 149.138 599.128 153.358 588.968C157.928 578.308 159.668 566.998 159.998 555.468C159.818 537.178 157.268 519.248 151.978 501.728C157.878 507.728 164.628 512.968 171.408 517.938C193.008 533.538 217.028 546.258 242.668 553.708C260.868 558.988 279.898 562.608 298.858 563.248C302.338 563.258 306.468 563.608 309.748 562.298C311.388 561.528 312.708 560.508 312.048 558.468C309.928 555.748 305.028 555.358 301.848 554.618C270.858 549.368 240.278 543.098 212.288 528.168C194.018 518.438 176.248 506.528 161.548 491.878C153.578 483.718 146.238 474.778 140.248 465.058C134.308 455.488 129.998 445.388 125.248 435.238C124.148 433.118 123.178 430.518 120.778 429.578C118.908 428.668 116.548 429.548 114.668 430.058C94.3079 436.458 71.1879 433.818 52.4179 423.788C38.8979 416.618 27.4679 405.778 20.1979 392.258C14.4479 381.628 11.6179 369.548 12.0879 357.468C12.5779 340.178 20.7079 323.648 33.6479 312.258C44.2279 302.818 57.1879 297.338 70.8779 294.148C74.6579 293.168 78.8979 292.678 82.4079 290.938C84.2279 289.918 85.2179 288.518 84.2179 286.418C82.5979 284.658 80.1579 284.078 77.8779 283.838C72.3779 283.348 66.7379 283.858 61.3479 285.008C52.6079 247.018 54.7479 206.548 67.2879 169.638C80.4779 130.438 104.758 95.5681 136.218 68.8181C163.178 45.6881 195.488 28.6681 229.868 19.7281C264.708 10.5681 301.568 9.39812 336.858 16.7181Z" fill="white"/>
<path d="M507.738 270.828C509.068 271.598 510.298 271.938 510.658 273.608C511.708 277.708 511.358 282.248 511.608 286.468C511.838 301.508 513.328 316.558 515.228 331.468C517.898 351.318 519.858 371.438 520.108 391.468C519.928 407.218 518.428 423.098 514.918 438.478C508.578 466.458 495.218 494.028 475.138 514.748C465.468 524.558 454.038 532.858 442.118 539.718C424.738 549.548 406.438 557.238 386.678 560.728C385.918 569.148 382.508 576.838 382.598 585.468C382.278 591.068 384.738 595.878 388.348 599.968C396.148 608.608 405.618 614.268 415.938 619.368C421.738 622.648 428.158 624.878 433.728 628.508C430.898 631.058 425.418 629.888 421.818 630.358C415.998 630.448 410.208 629.728 404.668 627.888C395.648 624.868 387.188 620.848 380.688 613.708C374.188 606.748 370.328 597.038 371.488 587.458C372.708 578.208 375.968 569.148 381.338 561.488C369.148 562.948 357.168 564.538 344.858 563.318C342.948 562.938 339.448 563.738 338.538 561.608C348.678 557.358 360.098 554.978 370.858 553.008C385.898 549.918 400.968 546.208 415.358 540.818C439.428 531.538 462.098 518.388 477.738 497.368C494.648 474.498 505.078 446.698 508.258 418.488C512.048 389.598 509.818 359.118 506.008 330.308C504.028 312.498 501.568 293.368 504.598 275.638C505.058 273.278 505.678 272.158 507.738 270.828Z" fill="black"/>
<path d="M57.858 330.098C63.438 330.158 69.358 331.898 72.658 336.698C74.758 339.618 75.098 343.238 73.938 346.608C71.298 354.138 64.9481 360.768 62.7781 368.458C61.7481 371.988 63.328 375.188 66.188 377.238C72.918 381.998 82.1281 384.048 89.4281 387.478C88.9981 388.308 88.438 388.918 87.758 389.318C84.288 390.308 80.2081 389.748 76.6781 389.268C71.1581 388.328 65.1181 387.008 60.2681 384.098C54.3681 380.528 51.2581 373.158 53.0181 366.448C55.0081 357.458 61.4281 351.308 64.4281 343.268C58.0381 339.288 51.008 341.388 45.248 335.428C48.128 331.238 53.008 329.958 57.858 330.098Z" fill="black"/>
</svg>
