<svg width="524" height="731" viewBox="0 0 524 731" fill="none" xmlns="http://www.w3.org/2000/svg">
<path d="M326.273 2.67458C367.263 8.75458 406.693 24.7546 439.513 50.1746C467.293 71.3946 489.863 99.3146 504.703 130.975C518.033 159.155 524.563 190.505 523.423 221.675C522.663 236.455 520.503 251.495 515.543 265.495C514.943 265.785 514.353 266.085 513.753 266.375C514.093 259.235 514.343 252.095 514.883 244.965C515.913 215.235 512.263 185.745 501.913 157.755C491.363 128.165 473.853 101.245 451.283 79.4046C410.043 38.8846 353.373 16.5446 295.773 15.4546C258.473 14.6146 221.043 22.5346 187.293 38.4446C152.883 54.6346 122.133 79.0946 99.5029 109.735C79.1729 137.245 65.6629 169.635 60.9029 203.545C58.6329 218.725 58.7929 233.655 59.4529 248.955C59.8129 257.195 61.1929 265.255 62.0529 273.435C70.0629 273.625 81.1529 274.035 86.5229 281.015C85.4829 282.065 84.8629 283.205 83.3329 283.535C78.0929 284.855 72.1729 284.085 66.7729 284.635C54.7829 285.655 42.9229 289.815 34.2129 298.365C23.9229 308.615 17.8129 322.575 16.2629 336.945C12.0129 368.935 29.1729 402.365 55.9429 419.735C72.0229 430.365 92.0229 434.885 110.673 428.635C115.113 427.405 120.133 423.815 124.753 425.875C128.163 427.325 128.373 430.155 129.483 433.245C134.773 446.645 143.033 458.565 151.463 470.145C161.383 483.745 172.873 496.035 185.293 507.375C196.043 516.795 207.423 525.395 219.143 533.565C228.243 540.005 237.913 545.825 248.003 550.585C265.963 558.895 285.783 564.545 304.843 569.715C315.363 572.555 326.093 575.875 336.763 577.815C341.283 578.735 345.603 579.255 349.993 580.715C348.583 581.535 347.403 581.875 345.753 581.985C320.953 583.715 297.673 579.005 273.963 572.325C262.163 568.975 250.743 565.365 239.633 560.065C217.353 549.505 197.243 535.035 178.193 519.495C170.003 512.825 162.493 505.205 155.383 497.405C156.553 506.535 157.323 515.735 157.623 524.925C158.713 542.015 157.833 560.405 152.183 576.705C147.793 589.005 141.133 600.795 132.313 610.465C122.853 620.855 110.683 629.435 98.9729 637.135C88.5929 643.635 78.0229 650.435 66.6729 655.115C61.5229 657.095 56.5329 659.015 50.9629 659.505C53.5329 656.125 56.9029 653.885 60.2329 651.355C69.9129 643.905 80.3929 637.665 90.3429 630.535C97.8729 625.105 105.583 619.795 112.653 613.775C120.083 607.445 126.503 600.035 131.423 591.595C137.443 581.275 142.613 569.855 144.333 557.955C146.813 543.525 146.273 529.475 146.513 514.925C146.703 505.845 145.993 496.595 147.033 487.565C136.823 474.085 124.313 458.605 120.193 441.975C102.533 449.865 82.1229 448.575 64.5529 441.175C47.4529 434.215 33.1929 422.165 22.1729 407.495C10.1029 391.385 2.56288 371.895 0.422885 351.905C-1.51712 332.115 3.14288 311.625 15.9529 296.095C24.8829 285.625 37.2729 278.065 50.6829 274.925C46.9829 260.605 44.7229 245.735 44.8629 230.925C44.6629 206.045 49.1729 181.085 57.5429 157.665C71.4929 118.825 96.1129 84.3046 127.713 57.8446C158.503 32.0746 195.583 14.3346 234.783 5.84458C264.733 -0.715424 295.953 -1.72542 326.273 2.67458Z" fill="black"/>
<path d="M451.283 79.405C473.853 101.245 491.363 128.165 501.913 157.755C512.263 185.745 515.913 215.235 514.883 244.965C514.343 252.095 514.093 259.235 513.753 266.375C512.473 271.325 510.653 276.195 508.913 281.005C507.333 285.075 507.233 289.605 507.233 293.925C507.583 312.605 508.293 331.255 508.853 349.925C508.883 370.815 509.303 391.605 507.753 412.475C506.673 428.265 506.433 444.205 504.523 459.915C502.543 475.555 498.183 490.725 490.423 504.505C479.983 522.755 464.543 537.805 446.753 548.875C433.743 556.965 420.013 560.805 405.513 565.245C392.873 569.055 380.033 572.225 367.273 575.665C361.803 577.185 356.233 577.615 350.653 578.475C351.253 579.795 352.153 580.715 353.353 581.255C361.743 585.425 370.413 585.705 379.593 585.235C376.973 592.235 375.453 599.175 378.233 606.435C380.973 613.715 388.263 617.745 394.883 620.955C406.513 626.585 418.383 628.025 431.013 629.625C438.233 636.075 444.683 644.185 447.143 653.705C449.213 661.435 448.273 669.705 444.663 676.815C439.723 686.905 430.563 694.545 421.173 700.335C408.153 708.255 393.293 713.685 378.673 717.805C339.833 728.495 297.923 731.485 257.763 730.625C223.863 729.585 189.413 725.605 156.513 717.175C140.183 712.975 123.783 707.515 108.623 700.065C97.1729 694.355 85.6729 687.195 77.2029 677.465C71.6329 671.125 67.6229 663.585 66.6729 655.115C78.0229 650.435 88.5929 643.635 98.9729 637.135C110.683 629.435 122.853 620.855 132.313 610.465C141.133 600.795 147.793 589.005 152.183 576.705C157.833 560.405 158.713 542.015 157.623 524.925C157.323 515.735 156.553 506.535 155.383 497.405C162.493 505.205 170.003 512.825 178.193 519.495C197.243 535.035 217.353 549.505 239.633 560.065C250.743 565.365 262.163 568.975 273.963 572.325C297.673 579.005 320.953 583.715 345.753 581.985C347.403 581.875 348.583 581.535 349.993 580.715C345.603 579.255 341.283 578.735 336.763 577.815C326.093 575.875 315.363 572.555 304.843 569.715C285.783 564.545 265.963 558.895 248.003 550.585C237.913 545.825 228.243 540.005 219.143 533.565C207.423 525.395 196.043 516.795 185.293 507.375C172.873 496.035 161.383 483.745 151.463 470.145C143.033 458.565 134.773 446.645 129.483 433.245C128.373 430.155 128.163 427.325 124.753 425.875C120.133 423.815 115.113 427.405 110.673 428.635C92.0229 434.885 72.0229 430.365 55.9429 419.735C29.1729 402.365 12.0129 368.935 16.2629 336.945C17.8129 322.575 23.9229 308.615 34.2129 298.365C42.9229 289.815 54.7829 285.655 66.7729 284.635C72.1729 284.085 78.0929 284.855 83.3329 283.535C84.8629 283.205 85.4829 282.065 86.5229 281.015C81.1529 274.035 70.0629 273.625 62.0529 273.435C61.1929 265.255 59.8129 257.195 59.4529 248.955C58.7929 233.655 58.633 218.725 60.903 203.545C65.663 169.635 79.1729 137.245 99.5029 109.735C122.133 79.095 152.883 54.635 187.293 38.445C221.043 22.535 258.473 14.615 295.773 15.455C353.373 16.545 410.043 38.885 451.283 79.405Z" fill="white"/>
<path d="M508.913 281.005C511.713 281.265 511.953 284.665 512.823 286.765C515.693 297.835 516.743 309.545 517.743 320.915C518.393 327.915 519.073 334.905 519.423 341.935C520.843 363.695 522.023 384.925 520.813 406.745C519.643 428.185 519.683 450.605 515.633 471.715C512.183 489.915 505.053 507.355 494.383 522.525C479.943 543.405 459.573 561.395 435.983 571.145C420.383 577.645 404.273 581.475 387.653 584.235C387.453 588.895 386.683 594.275 387.913 598.805C388.663 601.495 390.603 603.335 392.923 604.745C404.323 611.015 416.033 612.945 428.563 615.465C441.103 618.505 453.233 621.135 464.833 627.015C461.683 629.905 457.843 630.485 453.783 631.125C446.363 631.905 438.443 630.325 431.013 629.625C418.383 628.025 406.513 626.585 394.883 620.955C388.263 617.745 380.973 613.715 378.233 606.435C375.453 599.175 376.973 592.235 379.593 585.235C370.413 585.705 361.743 585.425 353.353 581.255C352.153 580.715 351.253 579.795 350.653 578.475C356.233 577.615 361.803 577.185 367.273 575.665C380.033 572.225 392.873 569.055 405.513 565.245C420.013 560.805 433.743 556.965 446.753 548.875C464.543 537.805 479.983 522.755 490.423 504.505C498.183 490.725 502.543 475.555 504.523 459.915C506.433 444.205 506.673 428.265 507.753 412.475C509.303 391.605 508.883 370.815 508.853 349.925C508.293 331.255 507.583 312.605 507.233 293.925C507.233 289.605 507.333 285.075 508.913 281.005Z" fill="black"/>
<path d="M50.763 308.355C59.153 307.815 67.523 309.025 74.163 314.555C78.893 318.595 83.813 323.875 85.673 329.915C86.643 332.885 85.753 335.615 83.333 337.515C79.333 340.595 74.583 342.455 70.763 345.955C63.543 351.695 63.703 365.075 71.063 370.615C77.113 376.155 84.483 378.495 92.003 381.515C94.053 382.385 96.783 383.005 98.113 384.885C97.123 386.935 94.793 387.455 92.723 387.705C82.693 388.355 72.593 385.245 64.613 379.145C60.083 375.935 56.653 371.405 55.363 365.955C53.483 357.695 54.113 348.595 59.613 341.795C64.243 335.735 70.543 333.005 77.403 330.245C74.063 324.485 70.333 319.365 63.933 316.795C56.753 314.135 48.773 314.355 41.333 312.165C44.323 309.765 46.913 308.705 50.763 308.355Z" fill="black"/>
</svg>
