<svg width="503" height="777" viewBox="0 0 503 777" fill="none" xmlns="http://www.w3.org/2000/svg">
<path d="M281.904 0.211244C318.994 1.76124 355.564 12.3213 387.694 30.9313C423.814 51.8313 454.244 82.7012 474.404 119.251C488.644 145.231 498.364 174.211 501.374 203.721C502.394 213.671 503.024 224.371 501.074 234.211C500.284 237.341 500.134 240.251 496.864 241.821C493.814 232.221 493.514 222.631 492.464 212.711C490.224 189.721 485.134 166.671 476.524 145.211C463.074 111.801 441.674 81.7312 414.014 58.6012C387.364 36.2912 355.354 20.5012 321.444 12.8812C299.354 7.88124 276.474 6.22125 253.914 8.11125C211.774 11.3713 170.974 26.7713 136.834 51.6213C130.914 56.0313 124.904 60.2613 119.414 65.2113C98.424 82.7113 81.294 105.291 68.244 129.191C58.244 147.571 50.844 167.321 46.524 187.801C43.704 201.491 41.194 214.681 41.494 228.731C41.664 251.691 48.584 272.211 57.364 293.091C62.794 292.301 68.624 291.601 74.084 292.461C76.784 293.311 77.624 296.551 75.904 298.711C74.384 300.181 71.914 300.111 69.934 300.391C54.824 301.751 39.264 307.371 28.224 318.051C19.514 326.231 13.594 337.181 11.554 348.951C8.86397 364.091 12.304 380.331 20.144 393.491C29.084 408.691 43.424 420.311 59.754 426.791C73.464 432.221 88.574 433.601 103.124 431.461C107.094 431.111 110.574 429.991 114.244 432.071C114.264 433.091 114.294 434.111 114.334 435.131C108.974 439.681 102.624 441.091 95.864 442.181C79.794 444.611 62.984 441.221 48.424 434.221C24.964 422.911 6.94397 401.121 1.49397 375.521C-2.25603 357.591 1.07398 338.391 11.254 323.091C19.274 310.841 31.114 301.811 44.714 296.551C38.304 283.041 34.654 268.511 32.984 253.681C31.044 236.181 30.894 218.471 32.504 200.941C33.774 188.061 37.054 175.241 41.144 162.991C51.864 131.221 69.834 102.051 93.174 78.0012C104.634 66.1412 117.394 53.8513 131.744 45.5813C134.484 44.0113 137.204 42.4113 139.814 40.6213C181.324 12.5213 231.794 -1.94876 281.904 0.211244Z" fill="black"/>
<path d="M321.444 12.8812C355.354 20.5012 387.364 36.2912 414.014 58.6012C441.674 81.7312 463.074 111.801 476.524 145.211C485.134 166.671 490.224 189.721 492.464 212.711C493.514 222.631 493.814 232.221 496.864 241.821C496.194 247.621 495.354 253.381 495.084 259.231C494.724 266.451 493.734 274.041 494.744 281.231C492.004 285.581 491.324 290.781 490.504 295.761C489.314 303.381 489.234 311.001 488.814 318.671C487.954 340.281 488.714 362.081 488.574 383.741C488.594 404.621 485.484 425.591 478.274 445.221C473.754 457.501 467.834 469.201 459.584 479.411C449.994 491.301 438.434 501.871 426.364 511.191C414.784 520.081 401.904 527.701 389.304 535.041C381.754 539.451 374.374 544.131 366.914 548.701C362.644 551.381 358.504 553.711 354.784 557.151C358.054 556.631 361.134 555.591 364.214 554.401C360.974 566.071 360.624 578.691 360.104 590.731C359.764 598.841 361.284 606.621 366.624 612.961C373.574 621.221 383.404 627.451 392.494 633.151C409.564 643.741 427.984 651.851 447.164 657.781C453.654 664.611 458.994 673.331 460.664 682.701C462.384 691.761 460.764 701.201 456.514 709.341C451.364 719.331 443.114 727.461 434.134 734.061C421.304 743.471 406.214 750.431 391.314 755.871C361.844 766.461 330.084 772.141 298.944 774.791C257.684 777.991 215.124 776.351 174.694 767.131C157.954 763.261 140.964 757.871 125.694 749.941C115.414 744.571 105.314 737.761 97.7139 728.901C92.2139 722.511 88.1139 715.091 86.5639 706.741C84.6539 696.481 86.9039 685.951 92.3239 677.101C113.364 664.001 130.554 645.141 140.914 622.581C145.714 611.881 147.734 600.361 148.554 588.731C149.764 573.171 148.944 557.211 148.014 541.641C146.194 521.441 144.994 500.511 139.864 480.841C150.604 493.111 162.734 504.321 176.484 513.161C193.514 524.161 212.504 532.381 231.634 538.961C252.244 546.061 273.304 552.141 294.704 556.361C302.924 557.931 311.504 559.711 319.884 559.891C322.594 559.841 326.094 559.761 328.374 558.101C329.664 557.221 329.374 555.811 329.654 554.441C323.754 554.511 318.374 553.721 312.664 552.351C283.484 545.331 254.454 536.861 226.384 526.211C207.484 519.021 189.554 510.391 173.114 498.511C155.074 485.641 139.664 469.001 126.064 451.611C121.954 446.571 119.174 440.291 114.454 435.841L114.334 435.131C114.294 434.111 114.264 433.091 114.244 432.071C110.574 429.991 107.094 431.111 103.124 431.461C88.5739 433.601 73.4639 432.221 59.7539 426.791C43.4239 420.311 29.0839 408.691 20.1439 393.491C12.3039 380.331 8.86392 364.091 11.5539 348.951C13.5939 337.181 19.5139 326.231 28.2239 318.051C39.2639 307.371 54.8239 301.751 69.9339 300.391C71.9139 300.111 74.3839 300.181 75.9039 298.711C77.6239 296.551 76.7839 293.311 74.0839 292.461C68.6239 291.601 62.7939 292.301 57.3639 293.091C48.5839 272.211 41.6639 251.691 41.4939 228.731C41.1939 214.681 43.7039 201.491 46.5239 187.801C50.8439 167.321 58.2439 147.571 68.2439 129.191C81.2939 105.291 98.4239 82.7112 119.414 65.2112C124.904 60.2612 130.914 56.0312 136.834 51.6212C170.974 26.7712 211.774 11.3712 253.914 8.11122C276.474 6.22122 299.354 7.88121 321.444 12.8812Z" fill="white"/>
<path d="M494.744 281.231C497.634 285.061 497.234 289.191 497.554 293.731C497.744 303.401 498.104 313.061 498.204 322.731C498.354 349.041 500.314 376.621 497.934 402.741C494.874 434.111 483.804 465.591 462.284 489.131C436.844 517.001 404.764 539.231 369.384 552.491C370.004 554.871 370.524 557.241 370.564 559.711C370.804 571.301 369.654 583.241 370.964 594.771C371.614 600.481 374.934 604.831 379.204 608.431C387.434 615.321 396.374 621.411 405.354 627.291C415.994 634.161 426.314 641.051 437.384 647.251C445.214 651.681 453.244 655.411 461.344 659.281C463.114 660.101 464.304 660.941 465.514 662.481C459.284 661.571 453.214 659.481 447.164 657.781C427.984 651.851 409.564 643.741 392.494 633.151C383.404 627.451 373.574 621.221 366.624 612.961C361.284 606.621 359.764 598.841 360.104 590.731C360.624 578.691 360.974 566.071 364.214 554.401C361.134 555.591 358.054 556.631 354.784 557.151C358.504 553.711 362.644 551.381 366.914 548.701C374.374 544.131 381.754 539.451 389.304 535.041C401.904 527.701 414.784 520.081 426.364 511.191C438.434 501.871 449.994 491.301 459.584 479.411C467.834 469.201 473.754 457.501 478.274 445.221C485.484 425.591 488.594 404.621 488.574 383.741C488.714 362.081 487.954 340.281 488.814 318.671C489.234 311.001 489.314 303.381 490.504 295.761C491.324 290.781 492.004 285.581 494.744 281.231Z" fill="black"/>
<path d="M65.114 342.532C70.034 347.532 68.834 356.681 65.144 362.081C64.194 363.911 61.644 366.362 62.254 368.512C63.394 371.232 66.574 373.242 69.014 374.722C75.004 378.172 81.024 381.451 87.634 383.591C87.504 388.031 84.944 389.182 80.904 389.042C74.564 388.112 68.294 385.752 62.454 383.182C55.904 380.102 49.984 374.502 50.214 366.732C50.324 360.662 54.524 357.672 56.344 352.502C57.664 348.312 55.934 345.252 54.554 341.442C58.424 340.402 61.914 339.362 65.114 342.532Z" fill="black"/>
<path d="M114.454 435.841C119.174 440.291 121.954 446.571 126.064 451.611C139.664 469.001 155.074 485.641 173.114 498.511C189.554 510.391 207.484 519.021 226.384 526.211C254.454 536.861 283.484 545.331 312.664 552.351C318.374 553.721 323.754 554.511 329.654 554.441C329.374 555.811 329.664 557.221 328.374 558.101C326.094 559.761 322.594 559.841 319.884 559.891C311.504 559.711 302.924 557.931 294.704 556.361C273.304 552.141 252.244 546.061 231.634 538.961C212.504 532.381 193.514 524.161 176.484 513.161C162.734 504.321 150.604 493.111 139.864 480.841C144.994 500.511 146.194 521.441 148.014 541.641C148.944 557.211 149.764 573.171 148.554 588.731C147.734 600.361 145.714 611.881 140.914 622.581C130.554 645.141 113.364 664.001 92.324 677.101C87.634 679.841 82.804 683.121 77.594 684.761C80.234 681.061 83.644 678.831 86.974 675.831C100.364 664.511 111.054 651.041 120.574 636.401C127.204 626.271 132.464 615.431 134.914 603.511C138.794 585.011 137.894 564.501 137.564 545.731C136.904 526.071 135.414 506.401 135.084 486.731C134.954 483.371 135.624 480.261 136.684 477.101C126.804 465.261 118.164 450.901 114.454 435.841Z" fill="black"/>
</svg>
